HIERARCHY
ROOT joint_0
{
	OFFSET 0.000000 0.000000 0.000000
	CHANNELS 6 Xposition Yposition Zposition Zrotation Yrotation Xrotation 
	JOINT joint_1
	{
		OFFSET 1.363060 -1.794630 0.839290
		CHANNELS 3 Zrotation Yrotation Xrotation
		JOINT joint_2
		{
			OFFSET 2.448110 -6.726130 0.000000
			CHANNELS 3 Zrotation Yrotation Xrotation
			JOINT joint_3
			{
				OFFSET 2.562200 -7.039590 0.000000
				CHANNELS 3 Zrotation Yrotation Xrotation
				JOINT joint_4
				{
					OFFSET 0.157640 -0.433110 2.322550
					CHANNELS 3 Zrotation Yrotation Xrotation
					End Site
					{
						OFFSET 0.000000 0.000000 0.000000
					}
				}
			}
		}
	}
	JOINT joint_5
	{
		OFFSET -1.305520 -1.794630 0.839290
		CHANNELS 3 Zrotation Yrotation Xrotation
		JOINT joint_6
		{
			OFFSET -2.542530 -6.985550 0.000000
			CHANNELS 3 Zrotation Yrotation Xrotation
			JOINT joint_7
			{
				OFFSET -2.568260 -7.056230 0.000000
				CHANNELS 3 Zrotation Yrotation Xrotation
				JOINT joint_8
				{
					OFFSET -0.164730 -0.452590 2.363150
					CHANNELS 3 Zrotation Yrotation Xrotation
					End Site
					{
						OFFSET 0.000000 0.000000 0.000000
					}
				}
			}
		}
	}
	JOINT joint_9
	{
		OFFSET 0.028270 2.035590 -0.193380
		CHANNELS 3 Zrotation Yrotation Xrotation
		JOINT joint_10
		{
			OFFSET 0.056720 2.048850 -0.042750
			CHANNELS 3 Zrotation Yrotation Xrotation
			JOINT joint_11
			{
				OFFSET -0.054170 1.746240 0.172020
				CHANNELS 3 Zrotation Yrotation Xrotation
				JOINT joint_12
				{
					OFFSET 0.104070 1.761360 -0.123970
					CHANNELS 3 Zrotation Yrotation Xrotation
					End Site
					{
						OFFSET 0.000000 0.000000 0.000000
					}
				}
			}
			JOINT joint_13
			{
				OFFSET 3.362410 1.200890 -0.311210
				CHANNELS 3 Zrotation Yrotation Xrotation
				JOINT joint_14
				{
					OFFSET 4.983000 -0.000000 -0.000000
					CHANNELS 3 Zrotation Yrotation Xrotation
					JOINT joint_15
					{
						OFFSET 3.483560 -0.000000 -0.000000
						CHANNELS 3 Zrotation Yrotation Xrotation
						JOINT joint_16
						{
							OFFSET 0.000000 0.000000 0.000000
							CHANNELS 3 Zrotation Yrotation Xrotation
							End Site
							{
								OFFSET 0.000000 0.000000 0.000000
							}
						}
					}
				}
			}
			JOINT joint_17
			{
				OFFSET -3.136600 1.374050 -0.404650
				CHANNELS 3 Zrotation Yrotation Xrotation
				JOINT joint_18
				{
					OFFSET -5.241900 -0.000000 -0.000000
					CHANNELS 3 Zrotation Yrotation Xrotation
					JOINT joint_19
					{
						OFFSET -3.444170 -0.000000 -0.000000
						CHANNELS 3 Zrotation Yrotation Xrotation
						JOINT joint_20
						{
							OFFSET 0.000000 0.000000 0.000000
							CHANNELS 3 Zrotation Yrotation Xrotation
							End Site
							{
								OFFSET 0.000000 0.000000 0.000000
							}
						}
					}
				}
			}
		}
	}
}
MOTION
Frames: 7
Frame Time: 0.031667
-9.504039 13.213994 1.398569 -12.802456 78.930977 -3.364663 -0.389670 8.323386 -50.538927 -17.363896 16.071931 32.101708 -5.763580 -2.099503 2.265417 -12.819866 16.601346 0.107588 -1.180642 -11.127314 -17.425587 -0.273438 -14.623108 78.759263 -0.217125 -2.773943 2.895335 -10.403057 -24.051490 -33.908364 5.080697 -1.504732 -9.974794 -0.354678 3.277682 -3.215076 -0.936178 5.618692 15.315671 -1.145236 5.864021 -34.992639 -77.784165 -78.587487 8.607460 24.308618 -39.427619 -7.707004 6.048607 0.749995 2.705391 -4.947329 0.763931 -2.193050 77.763856 72.337855 44.986974 -18.254221 18.826496 -32.110195 -17.920697 -9.979094 -5.221449 -3.732363 -3.257978 3.535748 
-9.044865 13.234505 1.380784 -15.252708 78.662460 -5.019760 -2.119213 12.962081 -47.394097 -13.152316 17.699783 40.022925 -7.617451 3.448797 -2.321639 -4.616221 8.180608 -3.670931 -6.617253 -17.555316 -18.446801 -2.300419 -22.549818 83.203947 6.125588 1.254971 -2.382776 -13.622336 -22.465964 -30.027252 -1.238430 -3.093695 -10.735803 -0.081367 -2.783651 -11.037381 0.337935 -0.276882 10.625467 3.242225 2.851083 -36.262423 -85.113306 -77.189209 11.943014 18.075155 -34.461530 -5.449833 12.100805 -1.980241 1.343242 2.620152 0.825500 -4.939698 73.974363 69.348180 42.988925 -22.604038 21.683274 -37.325009 -15.232004 -6.593756 3.005016 2.158403 3.342962 -2.935727 
-8.582102 13.253814 1.375227 -16.009581 78.725639 -5.274573 -3.770423 8.400658 -55.154103 -12.388980 20.593789 50.543973 -5.978121 -0.975977 1.923852 -5.845691 9.021574 0.425632 -0.789150 -12.403629 -20.038341 -1.765167 -17.688435 78.282641 4.009537 1.268698 -4.768007 -12.674504 -26.702578 -33.706841 2.280965 -5.810392 -2.342555 1.114141 -6.155243 -10.845536 2.686607 2.436408 8.983184 5.500967 1.627931 -34.755915 -88.469871 -72.451406 23.843728 22.529777 -34.653500 -10.340697 9.818929 -3.041368 2.851432 4.627667 4.642107 0.741861 76.387776 74.687250 47.820679 -17.833195 21.637036 -40.016699 -12.987928 -4.194735 1.892683 -3.126858 0.206588 -1.384990 
-8.108243 13.300405 1.390545 -14.743326 79.047958 -3.570675 -3.021441 11.778532 -50.763570 -14.623000 14.661171 53.695417 1.124466 5.660181 -2.400853 -4.253026 14.509939 -6.518696 -8.442087 -11.383855 -15.254494 -4.154409 -15.050305 86.816459 -3.140858 -5.217573 -4.700524 -13.200786 -22.196022 -31.433000 3.592203 1.195903 -4.907258 -0.991279 -4.988705 -4.239290 -2.874819 1.489172 12.738677 7.583713 3.339956 -30.207074 -89.490280 -73.695632 29.965747 23.889291 -31.523108 -7.800951 8.332087 4.102265 4.433579 -2.459446 -0.185421 -4.838376 76.187735 72.668651 41.915374 -23.728777 18.078600 -38.606140 -17.384259 -3.038171 -1.625819 2.539670 -1.991977 0.113439 
-7.625435 13.354099 1.398971 -12.545284 79.557106 -1.045868 1.866935 8.986625 -51.681023 -15.833320 17.033878 55.017797 -3.783986 3.411192 0.249035 0.408967 12.416308 -6.371986 -5.250010 -10.932841 -17.801950 0.294861 -19.002204 87.311370 -0.551869 0.928364 -2.193722 -11.799721 -18.485941 -22.694032 -2.604180 -3.279337 -3.435850 0.767483 -3.711008 -7.233773 2.435510 2.697024 8.642975 6.748683 8.472912 -33.195554 -88.164490 -68.012088 29.035737 21.220065 -31.298419 -18.261139 10.848108 3.384411 4.161745 -2.760955 -4.061242 0.639923 84.831939 70.752593 44.802093 -23.243799 15.592416 -37.936363 -19.097534 -10.024411 0.927153 -3.192592 0.164435 4.937980 
-7.136471 13.432327 1.396847 -12.834898 80.075310 -0.522212 1.661400 10.088590 -58.124402 -14.921831 18.589210 55.441170 1.559451 6.591082 4.028353 4.906518 10.634475 -1.254642 -9.837792 -18.794260 -11.222074 -4.802148 -17.399313 86.371766 6.374677 -1.421629 -0.054264 -3.075220 -22.661063 -23.698278 1.172050 2.248226 -6.827940 0.482510 -1.755928 -3.698049 0.564905 0.231792 6.321499 5.574151 7.026475 -29.378558 -88.754166 -66.806426 32.640732 22.187723 -26.651539 -11.886924 10.299935 0.954317 1.591375 -0.901477 4.016911 -0.135485 78.518170 66.279107 41.944606 -24.822274 17.913474 -38.343732 -18.807582 -9.692566 -0.930278 -0.976037 0.134960 -2.038926 
-6.670526 13.501952 1.377144 -15.472880 80.590347 -2.654320 -6.383282 17.286062 -49.863147 -16.524851 23.947340 62.676348 -5.393651 -2.578557 1.010756 2.719157 6.284624 -7.650387 -2.565362 -11.056627 -21.019146 1.040027 -14.276752 89.817331 1.990445 3.801792 -2.065844 7.363771 -22.739983 -18.605796 4.881018 -6.285375 -3.930848 6.796072 -6.683117 -6.051405 4.340246 6.938909 10.239330 10.922333 1.677501 -26.505654 -97.031593 -65.139760 44.193318 20.910165 -29.750570 -12.169886 11.989039 -5.266972 2.909516 -4.995563 -4.900619 1.755058 77.028311 61.129392 50.425132 -23.408889 17.219941 -45.113990 -14.220882 -10.428510 -1.208231 4.375145 -2.402719 -1.856912 
